<svg xmlns="http://www.w3.org/2000/svg" width="24" height="24" viewBox="0 0 24 24">
  <path d="M20.566 3H3.433C2.516 3 2 3.516 2 4.433v17.133C2 22.484 2.516 23 3.433 23h17.133C21.484 23 22 22.484 22 21.566V4.433C22 3.516 21.484 3 20.566 3zM8.938 18.063h-2.68V9.392h2.68v8.672zM7.098 8.73h-.018c-.938 0-1.53-.652-1.53-1.464.015-.84.544-1.464 1.372-1.464h.018c.854 0 1.53.625 1.53 1.464-.015.812-.676 1.464-1.372 1.464zM19.38 18.063h-2.68v-4.593c0-1.098-.392-1.847-1.372-1.847-.75 0-1.2.507-1.398 1.003-.073.177-.092.423-.092.67v4.767H9.51s.036-7.344 0-8.12h2.68v1.15c.36-.552 1.012-1.336 2.46-1.336 1.8 0 3.15 1.17 3.15 3.672v4.634z"/>
</svg>