 <svg width="100" height="100" viewBox="0 0 16 16" xmlns="http://www.w3.org/2000/svg">
  <path fill="#000000" d="M8 .3a8 8 0 0 0-2.52 15.6c.4.1.55-.2.55-.4v-1.4c-2 .4-2.9-.5-3.1-1.1-.1-.3-.6-1.1-1-1.3-.3-.2-.8-.7 0-.8.7-.1 1.2.6 1.4.8.8 1.3 2 1.1 2.5.8.1-.6.3-1.1.8-1.4-2.7-.3-5.5-1.3-5.5-5.8a4.6 4.6 0 0 1 1.2-3.2 4.3 4.3 0 0 1 .1-3.2s1-.3 3.3 1.2a11.4 11.4 0 0 1 6 0c2.3-1.5 3.2-1.2 3.2-1.2a4.3 4.3 0 0 1 .1 3.2 4.6 4.6 0 0 1 1.2 3.2c0 4.5-2.8 5.5-5.5 5.8.4.4.8 1.1.8 2.2v3.3c0 .2.1.5.6.4A8 8 0 0 0 8 .3"/>
</svg>